<svg width="527" height="417" viewBox="0 0 527 417" fill="none" xmlns="http://www.w3.org/2000/svg">
<path fill-rule="evenodd" clip-rule="evenodd" d="M0.5 19.5C49.664 18.501 98.997 18.168 148.5 18.5C148.66 20.153 149.326 21.486 150.5 22.5C174.596 88.696 199.263 154.696 224.5 220.5C259.257 147.318 293.757 73.985 328 0.5C360.35 73.864 392.684 147.197 425 220.5C446.724 168.718 468.724 117.051 491 65.5C496.284 51.033 500.95 36.367 505 21.5C510.207 13.423 516.541 12.423 524 18.5C526.436 22.483 527.102 26.816 526 31.5C521.864 43.576 517.53 55.576 513 67.5C464.805 183.753 416.805 300.086 369 416.5C334.833 340.833 300.667 265.167 266.5 189.5C230.911 265.089 195.411 340.756 160 416.5C106.338 284.342 53.171 152.009 0.5 19.5Z" fill="#010000"/>
</svg>
