<?xml version="1.0" encoding="UTF-8"?>
<!DOCTYPE svg PUBLIC "-//W3C//DTD SVG 1.1//EN" "http://www.w3.org/Graphics/SVG/1.1/DTD/svg11.dtd">
<svg xmlns="http://www.w3.org/2000/svg" version="1.1" width="1080px" height="1104px" style="shape-rendering:geometricPrecision; text-rendering:geometricPrecision; image-rendering:optimizeQuality; fill-rule:evenodd; clip-rule:evenodd" xmlns:xlink="http://www.w3.org/1999/xlink">
<g><path style="opacity:1" fill="#fd5d00" d="M -0.5,-0.5 C 359.5,-0.5 719.5,-0.5 1079.5,-0.5C 1079.5,367.5 1079.5,735.5 1079.5,1103.5C 719.5,1103.5 359.5,1103.5 -0.5,1103.5C -0.5,735.5 -0.5,367.5 -0.5,-0.5 Z"/></g>
<g><path style="opacity:1" fill="#010000" d="M 292.5,391.5 C 341.664,390.501 390.997,390.168 440.5,390.5C 440.66,392.153 441.326,393.486 442.5,394.5C 466.596,460.696 491.263,526.696 516.5,592.5C 551.257,519.318 585.757,445.985 620,372.5C 652.35,445.864 684.684,519.197 717,592.5C 738.724,540.718 760.724,489.051 783,437.5C 788.284,423.033 792.95,408.367 797,393.5C 802.207,385.423 808.541,384.423 816,390.5C 818.436,394.483 819.102,398.816 818,403.5C 813.864,415.576 809.53,427.576 805,439.5C 756.805,555.753 708.805,672.086 661,788.5C 626.833,712.833 592.667,637.167 558.5,561.5C 522.911,637.089 487.411,712.756 452,788.5C 398.338,656.342 345.171,524.009 292.5,391.5 Z"/></g>
<g><path style="opacity:1" fill="#e55401" d="M 291.5,389.5 C 341.335,388.169 391.335,388.169 441.5,389.5C 442.309,391.071 442.643,392.738 442.5,394.5C 441.326,393.486 440.66,392.153 440.5,390.5C 391.003,389.501 341.336,389.168 291.5,389.5 Z"/></g>
<g><path style="opacity:1" fill="#2d1000" d="M 291.5,389.5 C 341.336,389.168 391.003,389.501 440.5,390.5C 390.997,390.168 341.664,390.501 292.5,391.5C 291.662,391.158 291.328,390.492 291.5,389.5 Z"/></g>
</svg>
